<?xml version="1.0" encoding="utf-8"?>
<!-- Generator: Adobe Illustrator 24.0.2, SVG Export Plug-In . SVG Version: 6.00 Build 0)  -->
<svg version="1.1" id="Слой_1" xmlns="http://www.w3.org/2000/svg" xmlns:xlink="http://www.w3.org/1999/xlink" x="0px" y="0px"
	 viewBox="0 0 203.7 73.7" style="enable-background:new 0 0 203.7 73.7;" xml:space="preserve">
<style type="text/css">
	.Стиль_x0020_графики{fill:#23376C;}
	.Стиль_x0020_графики_x0020_2{fill:#FEFEFE;}
	.Стиль_x0020_графики_x0020_3{fill:#FFED00;}
</style>
<polygon class="Стиль_x0020_графики_x0020_3" points="192.6,17.7 195.6,17.7 201.7,2 198.8,2 "/>
<polygon class="Стиль_x0020_графики_x0020_3" points="84.5,17.7 87.5,17.7 93.6,2 90.7,2 "/>
<polygon class="Стиль_x0020_графики_x0020_3" points="147.3,17.7 150.3,17.7 156.5,2 153.5,2 "/>
<path class="Стиль_x0020_графики" d="M93.7,70.4h21.1V43.1h32.4V27.8H93.7V70.4z M156.5,27.8v42.6H178V27.8H156.5z
	 M156.5,17.7h36.4L199.1,2h-42.6V17.7z M93.7,17.7h53.6L153.6,2H93.7V17.7z M24,2.8C11.2,3.7,4.6,10.1,3,22.4
	c-1,8.3-1,25.7,1.3,34.1c2.9,10.4,11.8,14.4,21.9,14.8c15.9,0.5,22.2,0.7,38-0.2c11.9-0.7,18.3-6.4,19.2-18
	c0.5-6.4,0.3-18.1,0.3-25.1l-38.2-0.1l-5.9,15.2h22.8c0,4-0.6,10.6-5.4,11.2c-8.9,1.1-16.9,1-25.3,0c-3-0.3-4.8-2.5-6-5.2
	c-2.2-4.8-2.1-17.5-1.1-23.3c0.9-5.5,5.1-7.7,9.9-7.7l49.9-0.3L90.7,2H67.9C53.2,2,38.8,1.8,24,2.8z"/>
<path class="Стиль_x0020_графики_x0020_2" d="M42.2,11.7c0-0.5-0.1-1-0.5-1.3c-0.2-0.2-0.6-0.4-1.1-0.5l-0.7-0.1
	c-0.2,0-0.4-0.1-0.5-0.2c-0.1-0.1-0.2-0.3-0.2-0.4c0-0.4,0.3-0.7,0.9-0.7c0.4,0,0.8,0,1.2,0.4l0.7-0.7c-0.5-0.5-1.1-0.7-1.9-0.7
	c-1.3,0-2.1,0.7-2.1,1.8c0,0.5,0.1,0.9,0.4,1.2c0.3,0.3,0.6,0.4,1.1,0.5l0.7,0.1c0.3,0,0.4,0.1,0.5,0.2c0.1,0.1,0.2,0.3,0.2,0.5
	c0,0.5-0.4,0.7-1,0.7c-0.5,0-1.1-0.1-1.4-0.5l-0.7,0.7c0.6,0.6,1.3,0.8,2.2,0.8C41.3,13.5,42.2,12.8,42.2,11.7"/>
<path class="Стиль_x0020_графики_x0020_2" d="M44.3,8.4V7.5h-1.1v0.9H44.3z M44.3,13.4V9.1h-1.1v4.3H44.3z"/>
<path class="Стиль_x0020_графики_x0020_2" d="M48.7,12.9l-0.7-0.7c-0.2,0.2-0.4,0.3-0.7,0.3c-0.3,0-0.5-0.1-0.6-0.3
	c-0.2-0.2-0.2-0.5-0.2-1c0-0.5,0.1-0.7,0.2-1c0.2-0.2,0.4-0.3,0.6-0.3c0.3,0,0.5,0.1,0.7,0.3l0.7-0.7c-0.4-0.4-0.8-0.6-1.4-0.6
	c-0.9,0-1.9,0.5-1.9,2.2c0,1.8,1.1,2.2,1.9,2.2C47.8,13.5,48.3,13.3,48.7,12.9"/>
<path class="Стиль_x0020_графики_x0020_2" d="M53.1,13.4v-2.8c0-0.9-0.5-1.6-1.4-1.6c-0.4,0-0.7,0.1-1,0.4v-2h-1.1v5.9
	h1.1v-2.6c0-0.6,0.4-0.8,0.7-0.8c0.3,0,0.7,0.2,0.7,0.8v2.6H53.1z"/>
<path class="Стиль_x0020_графики_x0020_2" d="M56.7,10.9h-1.6c0-0.2,0-0.3,0.1-0.5c0.1-0.3,0.4-0.4,0.7-0.4
	s0.6,0.2,0.7,0.4C56.7,10.6,56.7,10.7,56.7,10.9 M57.8,11.6v-0.5c0-1.2-0.7-2.1-1.9-2.1c-1.1,0-1.9,0.8-1.9,2.2c0,1.8,1,2.2,2,2.2
	c0.8,0,1.2-0.2,1.6-0.7L57,12.2c-0.3,0.3-0.5,0.4-1,0.4c-0.6,0-0.9-0.4-0.9-1H57.8z"/>
<path class="Стиль_x0020_графики_x0020_2" d="M61.9,9.5c-0.3-0.3-0.6-0.4-1-0.4c-0.5,0-0.9,0.2-1.1,0.5V9.1h-1.1v4.3
	h1.1v-2.6c0-0.5,0.4-0.8,0.7-0.8c0.3,0,0.4,0.1,0.6,0.3L61.9,9.5z"/>
<path class="Стиль_x0020_графики_x0020_2" d="M66.1,13.4v-2.8c0-0.9-0.5-1.6-1.4-1.6c-0.4,0-0.7,0.1-1,0.4v-2h-1.1v5.9
	h1.1v-2.6c0-0.6,0.4-0.8,0.7-0.8c0.3,0,0.7,0.2,0.7,0.8v2.6H66.1z"/>
<path class="Стиль_x0020_графики_x0020_2" d="M69.8,10.9h-1.6c0-0.2,0-0.3,0.1-0.5c0.1-0.3,0.4-0.4,0.7-0.4
	c0.4,0,0.6,0.2,0.7,0.4C69.7,10.6,69.7,10.7,69.8,10.9 M70.8,11.6v-0.5c0-1.2-0.7-2.1-1.9-2.1c-1.1,0-1.9,0.8-1.9,2.2
	c0,1.8,1,2.2,2,2.2c0.8,0,1.2-0.2,1.6-0.7L70,12.2c-0.3,0.3-0.5,0.4-1,0.4c-0.6,0-0.9-0.4-0.9-1H70.8z"/>
<path class="Стиль_x0020_графики_x0020_2" d="M72.9,8.4V7.5h-1.1v0.9H72.9z M72.9,13.4V9.1h-1.1v4.3H72.9z"/>
<path class="Стиль_x0020_графики_x0020_2" d="M76,13.4v-0.9h-0.4c-0.3,0-0.4-0.1-0.4-0.4v-2.1H76V9.2h-0.8V8h-1.1v1.3
	h-0.5v0.8h0.5v2.1c0,0.6,0.4,1.2,1.3,1.2H76z"/>
</svg>
