<?xml version="1.0" encoding="utf-8"?>
<!-- Generator: Adobe Illustrator 21.1.0, SVG Export Plug-In . SVG Version: 6.00 Build 0)  -->
<svg version="1.1" id="Слой_1" xmlns="http://www.w3.org/2000/svg" xmlns:xlink="http://www.w3.org/1999/xlink" x="0px" y="0px"
	 viewBox="0 0 223 122.3" style="enable-background:new 0 0 223 122.3;" xml:space="preserve">
<style type="text/css">
	._x0031_{fill:#23376C;}
	._x0032_{fill:#FFED00;}
	._x0033_{fill:#A6B0B5;}
</style>
<polygon class="_x0032_" points="203.2,29 206.2,29 212.3,13.3 209.4,13.3 "/>
<polygon class="_x0032_" points="95.1,29 98.1,29 104.2,13.3 101.3,13.3 "/>
<polygon class="_x0032_" points="157.9,29 160.9,29 167.1,13.3 164.1,13.3 "/>
<polygon class="_x0031_" points="104.3,81.7 125.4,81.7 125.4,54.4 157.8,54.4 157.8,39.1 104.3,39.1 "/>
<rect x="167.1" y="39.1" class="_x0031_" width="21.5" height="42.6"/>
<polygon class="_x0031_" points="167.1,29 203.5,29 209.7,13.3 167.1,13.3 "/>
<polygon class="_x0031_" points="104.3,29 157.9,29 164.1,13.3 104.2,13.3 104.2,29 "/>
<path class="_x0031_" d="M34.6,14.1c-12.8,0.9-19.4,7.3-21,19.6c-1,8.3-1,25.7,1.3,34.1c2.9,10.4,11.8,14.4,21.9,14.8
	c15.9,0.5,22.2,0.7,38-0.2c11.9-0.7,18.3-6.4,19.2-18c0.5-6.4,0.3-18.1,0.3-25.1l-38.2-0.1l-5.9,15.2H73c0,4-0.6,10.6-5.4,11.2
	c-8.9,1.1-16.9,1-25.3,0c-3-0.3-4.8-2.5-6-5.2c-2.2-4.8-2.1-17.5-1.1-23.3c0.9-5.5,5.1-7.7,9.9-7.7l50-0.4l6.2-15.7H78.4
	C63.8,13.3,49.3,13.1,34.6,14.1z"/>
<path class="_x0033_" d="M22.6,102.4c0-1.2-0.3-2.1-1-2.8c-0.6-0.5-1.3-0.9-2.5-1l-1.6-0.2c-0.5-0.1-1-0.3-1.2-0.5
	c-0.3-0.3-0.4-0.6-0.4-0.9c0-0.9,0.7-1.7,2-1.7c0.9,0,1.9,0.1,2.7,0.9l1.6-1.6c-1.1-1.1-2.4-1.5-4.3-1.5c-2.8,0-4.6,1.6-4.6,4
	c0,1.1,0.3,2,0.9,2.6c0.6,0.6,1.4,0.9,2.6,1.1l1.6,0.2c0.6,0.1,0.9,0.2,1.2,0.5c0.3,0.3,0.4,0.6,0.4,1.1c0,1.1-0.8,1.6-2.3,1.6
	c-1.2,0-2.3-0.3-3.2-1.1l-1.7,1.7c1.3,1.3,2.8,1.7,4.8,1.7C20.5,106.4,22.6,105,22.6,102.4"/>
<path class="_x0033_" d="M27.3,95v-2h-2.5v2H27.3z M27.3,106.3v-9.6h-2.4v9.6H27.3z"/>
<path class="_x0033_" d="M37,105.1l-1.6-1.6c-0.5,0.5-0.9,0.8-1.6,0.8c-0.6,0-1-0.2-1.4-0.6c-0.4-0.5-0.5-1.1-0.5-2.1
	s0.2-1.7,0.5-2.1c0.4-0.4,0.8-0.6,1.4-0.6c0.6,0,1.1,0.2,1.6,0.8l1.6-1.6c-0.9-0.9-1.8-1.3-3.2-1.3c-1.9,0-4.3,1-4.3,4.9
	s2.4,4.9,4.3,4.9C35.1,106.4,36.1,106,37,105.1"/>
<path class="_x0033_" d="M46.8,106.3v-6.2c0-2-1.1-3.5-3.2-3.5c-0.9,0-1.7,0.3-2.3,1v-4.4h-2.4v13.2h2.4v-5.9c0-1.3,0.8-1.7,1.6-1.7
	s1.6,0.4,1.6,1.7v5.9L46.8,106.3L46.8,106.3z"/>
<path class="_x0033_" d="M54.9,100.6h-3.7c0-0.4,0.1-0.7,0.2-1c0.3-0.6,0.8-1,1.6-1s1.4,0.4,1.6,1C54.8,99.9,54.9,100.2,54.9,100.6
	 M57.3,102.3v-1.1c0-2.6-1.5-4.6-4.2-4.6c-2.5,0-4.2,1.8-4.2,4.9c0,3.9,2.2,4.9,4.5,4.9c1.7,0,2.7-0.5,3.7-1.5l-1.5-1.4
	c-0.6,0.6-1.1,0.9-2.2,0.9c-1.4,0-2.1-0.9-2.1-2.1C51.3,102.3,57.3,102.3,57.3,102.3z"/>
<path class="_x0033_" d="M66.5,97.5c-0.7-0.7-1.3-0.9-2.3-0.9s-2,0.5-2.4,1v-0.9h-2.3v9.6h2.4v-5.8c0-1.2,0.8-1.8,1.6-1.8
	c0.6,0,0.9,0.2,1.3,0.6L66.5,97.5z"/>
<path class="_x0033_" d="M75.8,106.3v-6.2c0-2-1.1-3.5-3.2-3.5c-0.9,0-1.7,0.3-2.3,1v-4.4h-2.4v13.2h2.4v-5.9c0-1.3,0.8-1.7,1.6-1.7
	c0.8,0,1.6,0.4,1.6,1.7v5.9L75.8,106.3L75.8,106.3z"/>
<path class="_x0033_" d="M84,100.6h-3.7c0-0.4,0.1-0.7,0.2-1c0.3-0.6,0.8-1,1.6-1c0.8,0,1.4,0.4,1.6,1C83.9,99.9,84,100.2,84,100.6
	 M86.3,102.3v-1.1c0-2.6-1.5-4.6-4.2-4.6c-2.5,0-4.2,1.8-4.2,4.9c0,3.9,2.2,4.9,4.5,4.9c1.7,0,2.7-0.5,3.7-1.5l-1.5-1.4
	c-0.6,0.6-1.1,0.9-2.2,0.9c-1.3,0-2.1-0.9-2.1-2.1C80.3,102.3,86.3,102.3,86.3,102.3z"/>
<path class="_x0033_" d="M91,95v-2h-2.5v2H91z M91,106.3v-9.6h-2.4v9.6H91z"/>
<path class="_x0033_" d="M98,106.3v-2h-0.9c-0.6,0-0.8-0.3-0.8-0.9v-4.6H98V97h-1.7v-2.8h-2.4V97h-1v1.8h1v4.8
	c0,1.4,0.8,2.8,2.8,2.8H98V106.3z"/>
</svg>
