<svg xmlns="http://www.w3.org/2000/svg" width="183.375" height="183.094" viewBox="0 0 61.125 61.031">
  <defs>
    <style>
      .cls-1 {
        fill-rule: evenodd;
      }
    </style>
  </defs>
  <path id="Фигура_1" data-name="Фигура 1" class="cls-1" d="M48,45V9s4.361-5.147,8,0c0.02,6.982,0,36,0,36s6.629,2.514,6,9-5.235,7.943-9,8-9.81-2.493-10-8A9.346,9.346,0,0,1,48,45Zm8-6h5v2H56V39Zm0-8h5v2H56V31Zm0-8h5v2H56V23Zm0-8h5v2H56V15ZM12,61H30s0.27-5.315-4-7c-0.038-8.606,0-21,0-21h4s0-3.821,3-4,6.918-1.526,7-4S40,4,40,4a2.75,2.75,0,0,0-3-3C33.7,0.893,4,1,4,1S0.839,2.408,1,4C0.806,5.858,1,25,1,25s1.417,3.913,5,4c2.874,0.353,3.441,1.593,4,4,2.2-.072,5,0,5,0V54A8.447,8.447,0,0,0,12,61ZM7,5H34V25H7V5ZM17.394,22.994s-3.108-2.214-3.059-5.273c0.047-2.922,2.542-6.168,3.13-7.256a6.706,6.706,0,0,0,1.061-3.9c1.678,0.757,4.265,2.359,4.668,6.946a8.054,8.054,0,0,1-.778,4.35c0.2,0.168,2.485-2.512,2.263-5.713,0.982,0.829,1.819,3.537,1.7,4.869a9.058,9.058,0,0,1-3.466,5.973,26.972,26.972,0,0,0,.637-3.635,9.6,9.6,0,0,1-2.051,1.1c-0.366.132-2.158-3.428-1.839-5.713C19.113,15.153,15.645,16.853,17.394,22.994Z" transform="translate(-0.906 -0.969)"/>
</svg>
